# xmcd
#
# Track frame offsets:
#       150
#       16065
#       31077
#       47912
#       65507
#       80167
#       99702
#       116755
#       134417
#       150560
#
# Disc length: 2255 seconds
#
# Revision: 0
# Processed by: cddbd v1.4PL0 Copyright (c) Steve Scherf et al.
# Submitted via: WhereIsIt 3.26
#
DISCID=8008cd0a
DTITLE=Ana Belen - Ana En Rio
DYEAR=1900
DGENRE=
TTITLE0=Balance
TTITLE1=Teresiña
TTITLE2=Expreso 2222
TTITLE3=Imposible
TTITLE4=De Donde Viene El Bayon
TTITLE5=Planeta Agua
TTITLE6=Noche De Mascaras
TTITLE7=Vuelvo
TTITLE8=Pagem Da Janela
TTITLE9=Caminando
EXTD=
EXTT0=
EXTT1=
EXTT2=
EXTT3=
EXTT4=
EXTT5=
EXTT6=
EXTT7=
EXTT8=
EXTT9=
PLAYORDER=
